<?xml version="1.0" standalone="no"?>
<!DOCTYPE svg PUBLIC "-//W3C//DTD SVG 20010904//EN"
 "http://www.w3.org/TR/2001/REC-SVG-20010904/DTD/svg10.dtd">
<svg version="1.0" xmlns="http://www.w3.org/2000/svg"
 width="226.000000pt" height="105.000000pt" viewBox="0 0 226.000000 105.000000"
 preserveAspectRatio="xMidYMid meet">
<metadata>
Created by potrace 1.16, written by Peter Selinger 2001-2019
</metadata>
<g transform="translate(0.000000,105.000000) scale(0.100000,-0.100000)"
fill="#000000" stroke="none">
<path d="M436 923 c-3 -4 -14 -8 -22 -9 -23 -4 -86 -35 -102 -51 -7 -7 -19
-13 -25 -13 -14 0 -43 -30 -42 -44 0 -5 -10 -12 -22 -17 -13 -5 -23 -15 -23
-24 0 -8 -4 -15 -9 -15 -5 0 -12 -7 -15 -16 -4 -10 -2 -13 7 -8 6 4 2 -3 -11
-15 -12 -12 -20 -26 -17 -32 4 -5 2 -9 -4 -9 -17 0 -31 -72 -30 -151 1 -85 7
-121 20 -113 5 3 6 -1 3 -9 -2 -7 0 -26 5 -41 10 -24 13 -26 33 -16 21 10 22
10 5 -4 -20 -15 -14 -40 17 -65 13 -11 16 -9 22 13 3 13 3 30 -1 35 -3 7 0 8
9 5 15 -6 21 6 17 30 -1 4 6 14 16 22 16 12 16 15 3 24 -15 9 -13 11 12 14 7
0 14 10 16 20 3 15 0 18 -17 13 -14 -3 -21 0 -21 9 0 8 6 11 15 8 11 -5 15 1
15 25 0 23 4 29 15 25 20 -8 41 15 50 56 7 30 5 32 -14 27 -11 -3 -21 -1 -21
4 0 5 9 9 20 9 11 0 20 7 20 16 0 11 -6 14 -20 9 -15 -5 -18 -3 -14 9 3 8 12
12 20 9 20 -8 61 5 67 20 4 11 -4 12 -39 7 -40 -6 -44 -5 -43 14 0 12 3 15 6
9 11 -28 33 -13 33 21 0 19 3 37 8 40 4 2 6 -14 4 -36 -3 -28 -1 -39 7 -34 6
4 11 23 11 42 0 27 4 34 20 34 11 0 20 5 20 10 0 6 -7 10 -15 10 -8 0 -15 4
-15 9 0 16 39 0 43 -18 3 -11 7 -7 16 14 7 17 19 42 26 57 10 20 10 28 2 32
-7 2 -3 5 8 6 l20 1 -20 9 c-16 7 -11 9 20 9 31 0 36 -2 20 -9 -17 -8 -16 -9
10 -11 24 -1 26 -3 8 -6 -22 -4 -33 -23 -14 -23 5 0 12 -13 16 -30 5 -25 11
-30 36 -30 27 0 29 -3 29 -35 0 -31 3 -35 25 -35 27 0 29 -7 25 -82 -1 -23 3
-38 10 -38 6 0 10 6 9 13 -3 25 3 81 8 70 2 -7 13 -13 24 -13 14 0 19 -7 19
-25 0 -26 24 -35 33 -12 3 6 6 2 6 -10 1 -16 -3 -20 -19 -16 -17 5 -20 0 -20
-30 0 -19 6 -38 13 -40 10 -4 10 -6 0 -6 -18 -1 -16 -41 2 -41 19 0 21 76 3
82 -7 3 -6 7 5 11 14 5 17 1 17 -23 0 -20 5 -30 15 -30 8 0 15 -4 15 -10 0 -5
-7 -7 -15 -4 -10 4 -15 0 -15 -15 0 -12 6 -21 15 -21 8 0 15 -4 15 -9 0 -5
-10 -7 -22 -3 -18 4 -20 2 -16 -16 4 -12 1 -25 -4 -28 -7 -5 -9 4 -6 25 4 25
1 31 -14 31 -10 0 -18 -1 -18 -3 0 -14 43 -87 51 -87 6 0 9 -6 6 -14 -7 -18
14 -37 42 -39 23 -1 37 -24 15 -24 -8 0 -14 4 -14 9 0 4 -8 8 -17 8 -15 0 -16
-2 -3 -10 8 -5 11 -10 5 -10 -5 0 -3 -5 5 -10 8 -5 15 -17 15 -26 0 -10 5 -19
11 -21 16 -5 57 63 48 78 -4 7 -3 9 3 6 14 -9 24 18 16 40 -4 10 -2 14 5 10 6
-4 12 1 14 10 2 10 -5 24 -17 31 -20 13 -19 13 3 7 18 -5 22 -2 23 17 1 13 2
38 4 56 2 21 -3 35 -14 42 -9 6 -11 10 -3 10 6 0 12 6 12 14 0 8 -6 17 -12 19
-8 4 -9 6 -2 6 23 2 -32 130 -65 153 -10 7 -19 16 -20 20 -3 20 -47 58 -72 63
-16 4 -31 15 -34 26 -4 13 -12 18 -21 15 -9 -3 -12 -1 -9 4 3 6 -1 10 -9 10
-10 0 -14 -6 -10 -17 3 -10 -2 -5 -11 10 -10 18 -22 26 -31 23 -8 -3 -14 -1
-14 4 0 6 -9 10 -20 10 -11 0 -20 -6 -20 -12 0 -9 -3 -10 -8 -2 -4 6 -35 10
-69 10 -57 -1 -76 -7 -55 -19 4 -2 2 -2 -5 -1 -6 2 -14 -2 -17 -9 -3 -7 -3 -2
0 11 5 23 3 27 -10 15z"/>
<path d="M1818 640 l-3 -100 30 0 c29 0 30 1 27 44 l-4 44 41 7 c69 11 94 58
49 89 -28 20 -58 22 -40 4 7 -7 12 -24 12 -38 0 -31 -17 -50 -43 -50 -17 0
-18 6 -15 50 3 48 2 50 -24 50 l-27 0 -3 -100z"/>
<path d="M680 321 c0 -17 -6 -21 -30 -21 -24 0 -30 -4 -30 -20 0 -17 -3 -19
-19 -11 -23 13 -95 -5 -85 -21 5 -7 1 -9 -9 -5 -10 3 -17 2 -17 -4 0 -6 -4 -7
-10 -4 -5 3 -10 2 -10 -4 0 -5 19 -12 43 -14 l42 -4 -47 -1 c-36 -2 -48 2 -48
12 0 12 -5 12 -30 3 -16 -6 -30 -15 -30 -20 0 -4 -4 -6 -9 -3 -5 3 -11 -1 -15
-9 -7 -20 6 -26 44 -19 22 5 28 10 21 17 -13 13 -14 27 -2 27 5 0 13 -10 16
-21 6 -17 9 -19 16 -8 7 11 9 11 9 1 0 -7 5 -10 12 -6 7 4 8 3 4 -5 -4 -6 -12
-9 -17 -6 -5 4 -9 1 -9 -4 0 -7 25 -11 62 -11 73 0 74 -8 1 -11 -29 -1 -50 -6
-47 -11 9 -14 91 -9 103 6 11 14 40 14 60 2 5 -3 14 1 21 10 7 8 19 13 26 10
7 -3 16 0 20 6 4 7 3 8 -4 4 -7 -4 -12 -3 -12 2 0 5 -13 8 -30 7 -26 -2 -28 0
-19 16 5 11 12 19 15 19 3 0 2 -4 -1 -10 -7 -11 -4 -12 35 -14 37 -2 51 -18
31 -34 -9 -7 2 -4 25 7 22 11 46 27 53 35 12 14 9 18 -18 27 -17 6 -31 15 -31
21 0 5 6 6 13 3 6 -4 1 2 -12 13 -14 11 -35 19 -48 17 -19 -2 -22 1 -17 20 3
13 1 26 -5 29 -7 4 -11 -1 -11 -13z"/>
</g>
</svg>
