<?xml version="1.0" standalone="no"?>
<!DOCTYPE svg PUBLIC "-//W3C//DTD SVG 20010904//EN"
 "http://www.w3.org/TR/2001/REC-SVG-20010904/DTD/svg10.dtd">
<svg version="1.0" xmlns="http://www.w3.org/2000/svg"
 width="396.000000pt" height="498.000000pt" viewBox="0 0 396.000000 498.000000"
 preserveAspectRatio="xMidYMid meet">
<metadata>
Created by potrace 1.16, written by Peter Selinger 2001-2019
</metadata>
<g transform="translate(0.000000,498.000000) scale(0.100000,-0.100000)"
fill="#000000" stroke="none">
<path d="M1825 4742 c-354 -181 -1176 -499 -1568 -607 l-57 -16 0 -202 c-1
-479 21 -1993 30 -2107 21 -263 91 -470 229 -677 190 -284 475 -511 921 -733
186 -93 607 -280 630 -280 27 0 469 198 669 300 310 158 503 291 681 470 219
220 350 462 411 756 23 111 31 424 45 1775 l7 697 -59 16 c-397 111 -1188 417
-1569 607 -99 49 -184 89 -190 88 -5 0 -87 -40 -180 -87z m349 -151 c306 -150
897 -384 1304 -517 l202 -66 -1 -182 c0 -99 -6 -602 -14 -1116 -11 -754 -17
-951 -29 -1017 -50 -263 -164 -480 -360 -682 -229 -235 -513 -410 -1058 -651
l-208 -91 -207 92 c-548 242 -793 390 -1029 624 -185 182 -282 334 -348 545
-56 176 -56 176 -71 1180 -8 514 -14 1016 -14 1116 l-1 181 227 76 c430 142
1056 393 1308 523 66 34 124 62 129 63 5 0 81 -34 170 -78z"/>
<path d="M1935 4503 c-252 -130 -933 -403 -1330 -533 -71 -23 -134 -46 -139
-51 -11 -10 12 -1967 25 -2109 29 -322 182 -601 454 -828 212 -177 429 -301
858 -492 l207 -92 208 92 c428 191 645 315 857 492 272 227 425 506 454 828
13 142 36 2099 25 2109 -5 5 -67 28 -139 51 -393 129 -1047 390 -1323 529 -45
22 -83 41 -84 41 -2 -1 -34 -17 -73 -37z m104 -74 c-4 -110 -81 -229 -150
-229 -39 0 -76 -20 -118 -64 l-35 -36 35 10 c41 12 129 13 147 2 7 -5 -15 -6
-47 -4 -38 3 -76 -1 -105 -11 -62 -21 -60 -6 9 59 30 29 55 56 55 61 0 5 25
38 56 74 31 35 68 81 81 101 14 21 30 35 36 31 6 -3 7 -1 3 6 -7 11 18 61 30
61 3 0 4 -27 3 -61z m-85 -444 c11 -8 32 -15 46 -15 14 0 35 7 46 15 25 19 67
19 161 -1 59 -12 82 -13 101 -4 36 16 38 5 3 -19 -28 -21 -31 -21 -98 -5 -73
17 -129 15 -180 -7 -28 -11 -38 -11 -65 0 -52 22 -108 24 -181 7 -67 -16 -70
-16 -98 5 -35 24 -33 35 3 19 18 -9 41 -8 94 3 89 20 144 20 168 2z m271 -109
c247 -69 446 -261 531 -511 39 -115 45 -295 15 -415 -90 -357 -387 -590 -751
-590 -339 0 -618 203 -732 530 -31 90 -32 103 -33 235 0 157 16 229 80 355
104 203 298 355 521 404 88 20 284 15 369 -8z m-1348 -555 c56 -40 73 -68 73
-116 l-1 -40 -30 35 -30 35 16 -39 c20 -50 20 -49 -15 -31 -39 20 -70 82 -70
140 0 25 4 45 8 45 5 0 27 -13 49 -29z m2323 -16 c0 -58 -31 -120 -70 -140
-35 -18 -35 -19 -15 31 l16 39 -30 -35 -30 -35 -1 40 c0 22 7 51 16 63 17 25
91 82 106 82 4 0 8 -20 8 -45z m-2339 -221 c44 -22 79 -71 79 -112 l0 -36 -30
29 c-34 32 -37 28 -15 -15 13 -26 14 -30 1 -30 -20 0 -74 47 -90 79 -14 25
-19 58 -17 94 1 20 21 17 72 -9z m2370 9 c2 -36 -3 -69 -17 -94 -16 -32 -70
-79 -90 -79 -13 0 -12 4 1 30 22 43 19 47 -15 15 l-30 -29 0 36 c0 46 38 94
95 119 50 23 55 23 56 2z m-2121 -18 c0 -40 -37 -104 -73 -125 -50 -31 -62
-26 -37 15 26 42 19 45 -15 9 l-25 -27 0 35 c0 43 22 71 75 98 56 27 75 26 75
-5z m1875 4 c55 -26 75 -52 75 -98 l0 -34 -25 27 c-34 36 -41 33 -15 -9 25
-41 13 -46 -37 -15 -36 21 -73 85 -73 125 0 31 16 32 75 4z m-1861 -165 c17
-45 -4 -135 -41 -176 -25 -28 -34 -21 -28 25 l5 42 -18 -37 c-21 -47 -29 -48
-37 -4 -9 44 16 97 64 136 41 34 47 36 55 14z m1827 -14 c48 -39 73 -92 64
-136 -8 -44 -16 -43 -37 4 l-18 37 5 -42 c6 -46 -3 -53 -28 -25 -37 41 -58
131 -41 176 8 22 14 20 55 -14z m-1997 -103 c23 -16 53 -73 43 -83 -3 -3 -16
1 -29 10 -37 26 -44 18 -13 -14 l29 -30 -35 0 c-61 0 -139 69 -139 124 0 17 6
18 60 13 34 -3 71 -12 84 -20z m2256 6 c0 -54 -78 -123 -139 -123 l-35 0 29
30 c31 32 24 40 -13 14 -33 -23 -40 -9 -17 34 22 42 63 61 133 61 34 1 42 -2
42 -16z m-2000 -85 c24 -53 25 -95 4 -148 -21 -52 -34 -51 -34 3 0 31 -3 38
-10 27 -5 -8 -10 -28 -10 -44 0 -28 -1 -29 -19 -12 -27 25 -35 69 -21 113 15
47 48 103 61 103 6 0 19 -19 29 -42z m1670 -14 c33 -63 34 -125 3 -156 l-23
-22 0 29 c0 17 -5 37 -10 45 -7 11 -10 4 -10 -27 0 -24 -4 -43 -9 -43 -13 0
-41 76 -41 113 1 41 36 120 52 115 7 -3 24 -27 38 -54z m-1791 -156 c17 -10
51 -58 51 -72 0 -3 -13 0 -30 5 -44 16 -60 5 -22 -15 18 -9 30 -21 27 -26 -11
-17 -84 -11 -126 10 -34 18 -79 70 -79 92 0 12 83 27 123 22 21 -2 46 -10 56
-16z m233 -5 c35 -36 48 -73 48 -133 0 -81 -22 -110 -34 -45 -11 56 -30 56
-22 0 6 -37 5 -46 -6 -43 -25 8 -58 70 -58 108 0 42 27 140 39 140 4 0 19 -12
33 -27z m1433 -25 c21 -72 19 -119 -7 -158 -36 -53 -51 -51 -42 5 8 56 -11 56
-22 0 -7 -37 -18 -45 -28 -19 -10 25 -7 110 5 141 11 29 57 83 70 83 5 0 15
-23 24 -52z m305 41 c27 -6 50 -14 50 -17 0 -22 -45 -74 -79 -92 -42 -21 -115
-27 -126 -10 -3 5 9 17 27 26 38 20 22 31 -22 15 -34 -11 -37 -6 -13 29 37 54
80 67 163 49z m-1536 -182 c41 -42 66 -100 66 -151 0 -35 -11 -33 -38 10 -30
46 -39 37 -18 -17 9 -23 15 -44 12 -46 -3 -3 -19 3 -37 13 -49 29 -69 76 -69
161 0 68 1 73 22 73 12 0 39 -18 62 -43z m1056 -30 c0 -85 -20 -132 -69 -161
-18 -10 -34 -16 -37 -13 -3 2 3 23 12 46 21 54 12 63 -18 17 -27 -43 -38 -45
-38 -10 0 77 78 194 128 194 21 0 22 -5 22 -73z m-1348 3 c22 -6 46 -23 58
-40 l21 -29 -48 -3 -48 -3 43 -14 c36 -12 41 -17 29 -28 -21 -21 -82 -27 -131
-13 -48 13 -116 74 -100 89 8 8 119 50 134 51 3 0 22 -5 42 -10z m1688 -20
c24 -9 46 -22 47 -27 7 -19 -58 -71 -103 -83 -49 -14 -110 -8 -131 13 -12 11
-7 16 29 28 l43 14 -48 3 -48 3 21 29 c36 51 95 57 190 20z m-1175 -40 c18
-11 44 -37 59 -59 29 -42 46 -111 27 -111 -6 0 -11 4 -11 9 0 5 -15 20 -32 33
l-33 23 28 -48 28 -47 -23 0 c-25 0 -65 24 -85 50 -14 18 -43 118 -43 148 0
29 40 30 85 2z m615 -2 c0 -30 -29 -130 -43 -148 -20 -26 -60 -50 -85 -50
l-23 0 28 47 28 48 -33 -23 c-17 -13 -32 -28 -32 -33 0 -5 -5 -9 -11 -9 -19 0
-2 69 27 111 49 71 144 108 144 57z m-860 -127 l34 -28 -59 -8 c-45 -6 -55
-10 -40 -16 11 -4 35 -8 53 -8 42 -1 38 -20 -9 -43 -63 -33 -160 -18 -204 31
l-19 23 24 19 c85 65 165 76 220 30z m1174 9 c23 -11 52 -29 66 -39 l24 -19
-19 -23 c-44 -49 -141 -64 -204 -31 -47 23 -51 42 -9 43 18 0 42 4 53 8 15 7
6 10 -37 16 -62 8 -64 15 -14 46 40 24 89 24 140 -1z m-604 -57 c65 -58 25
-163 -60 -163 -85 0 -125 105 -60 163 18 16 42 27 60 27 18 0 42 -11 60 -27z
m-297 -50 l32 -16 -47 -16 c-67 -23 -71 -34 -10 -30 28 2 52 1 52 -3 0 -13
-61 -57 -96 -68 -45 -15 -112 -8 -148 15 l-27 18 28 30 c79 84 147 106 216 70z
m623 -12 c21 -16 52 -42 67 -58 l28 -30 -27 -18 c-36 -23 -103 -30 -148 -15
-35 11 -96 55 -96 68 0 4 24 5 52 3 61 -4 57 7 -10 30 l-47 16 30 16 c48 26
106 22 151 -12z m-912 -391 c44 -106 61 -128 90 -117 13 5 16 23 16 111 0 91
-2 105 -17 109 -10 3 7 5 37 6 42 0 51 -2 38 -10 -15 -8 -18 -25 -18 -94 0
-46 3 -90 6 -99 9 -23 70 -21 83 2 9 14 10 13 11 -10 l0 -28 -123 0 -123 0 -9
33 c-9 29 -14 32 -51 35 -38 3 -43 1 -52 -27 -8 -22 -7 -31 1 -35 7 -2 -8 -4
-33 -4 -25 0 -37 2 -28 5 11 3 35 47 65 119 26 63 51 113 56 111 5 -1 28 -50
51 -107z m333 103 c-17 -4 -19 -14 -15 -95 3 -96 15 -118 63 -118 47 0 60 23
64 111 3 71 1 84 -15 96 -16 11 -12 13 32 12 27 -1 41 -3 32 -6 -15 -4 -18
-17 -18 -83 0 -44 -5 -90 -11 -103 -24 -52 -122 -65 -164 -22 -23 22 -25 32
-25 109 0 70 -3 87 -17 95 -14 8 -5 10 37 10 30 -1 47 -3 37 -6z m282 -80 l43
-88 44 88 c25 48 48 86 53 83 4 -3 13 -50 20 -104 14 -105 17 -116 41 -125 8
-3 -4 -6 -27 -6 l-41 -1 -9 73 -9 72 -37 -72 c-20 -40 -41 -73 -45 -73 -5 0
-24 32 -43 71 -32 68 -34 70 -40 43 -11 -51 -10 -102 4 -107 6 -3 -8 -6 -33
-6 -33 0 -41 2 -29 9 10 6 19 29 23 57 16 110 28 173 35 173 4 0 26 -39 50
-87z m408 -52 l33 -36 0 77 c0 63 -3 79 -17 87 -14 8 -8 10 27 11 25 0 40 -4
34 -8 -6 -4 -14 -55 -17 -116 -4 -60 -9 -112 -12 -115 -3 -3 -44 33 -90 79
l-85 85 0 -67 c0 -47 5 -71 16 -82 14 -15 12 -16 -28 -15 -24 0 -37 3 -30 6 6
2 12 22 12 42 0 21 3 72 6 115 l7 76 56 -51 c31 -29 71 -68 88 -88z m-1513
-270 c24 -57 51 -110 61 -117 17 -13 15 -14 -21 -14 -36 0 -41 3 -49 33 -9 29
-14 32 -51 35 -38 3 -43 1 -52 -27 -8 -22 -7 -31 1 -35 7 -2 -8 -4 -33 -4 -25
0 -37 2 -28 5 11 3 35 47 65 119 26 63 51 113 56 111 5 -1 28 -49 51 -106z
m215 77 c0 -30 -1 -31 -9 -10 -7 16 -18 22 -39 22 -42 0 -50 -29 -14 -58 15
-13 38 -31 51 -42 28 -24 29 -73 1 -101 -16 -16 -30 -19 -67 -17 -46 3 -47 4
-50 38 l-2 35 16 -28 c12 -23 21 -28 47 -25 26 2 33 8 35 30 3 22 -4 32 -37
52 -65 41 -75 73 -36 111 18 18 35 25 65 25 39 0 40 -1 39 -32z m190 0 c0 -30
-1 -31 -9 -10 -7 16 -18 22 -39 22 -42 0 -50 -29 -14 -58 15 -13 38 -31 51
-42 28 -24 29 -73 1 -101 -16 -16 -30 -19 -67 -17 -46 3 -47 4 -50 38 l-2 35
16 -28 c12 -23 21 -28 47 -25 26 2 33 8 35 30 3 22 -4 32 -37 52 -65 41 -75
73 -36 111 18 18 35 25 65 25 39 0 40 -1 39 -32z m241 17 c40 -21 60 -53 60
-98 0 -100 -108 -160 -200 -112 -77 40 -79 168 -2 209 35 20 105 20 142 1z
m304 9 c10 -4 16 -18 16 -38 -1 -28 -2 -29 -12 -11 -16 29 -28 35 -71 35 -73
0 -110 -76 -73 -149 27 -50 100 -67 137 -30 l20 20 -3 -28 c-3 -26 -6 -28 -57
-31 -65 -4 -103 10 -136 50 -43 51 -26 140 33 172 27 15 117 21 146 10z m124
-5 c-15 -8 -18 -25 -18 -99 0 -105 5 -120 35 -120 20 0 30 15 72 115 26 63 51
114 56 112 5 -1 28 -49 51 -106 24 -57 51 -110 61 -117 17 -13 15 -14 -21 -14
-36 0 -41 3 -49 33 -9 29 -14 32 -51 35 -38 3 -43 1 -52 -27 -8 -22 -7 -31 1
-35 7 -2 -31 -5 -83 -5 -69 0 -90 2 -77 10 14 8 17 25 17 114 0 90 -2 104 -17
108 -10 3 7 5 37 6 42 0 51 -2 38 -10z m802 -4 c40 -21 60 -53 60 -98 0 -100
-108 -160 -200 -112 -77 40 -79 168 -2 209 35 20 105 20 142 1z m257 -124 l33
-36 0 77 c0 63 -3 79 -17 87 -14 8 -8 10 27 11 25 0 40 -4 34 -8 -6 -4 -14
-55 -17 -116 -4 -60 -9 -112 -12 -115 -3 -3 -44 33 -90 79 l-85 85 0 -67 c0
-47 5 -71 16 -82 14 -15 11 -16 -28 -15 -24 0 -37 3 -30 6 6 2 12 22 12 42 0
21 3 72 6 115 l7 76 56 -51 c31 -29 71 -68 88 -88z"/>
<path d="M1935 3425 c-16 -8 -47 -14 -67 -15 -28 0 -41 -6 -52 -23 -22 -32
-48 -109 -35 -101 6 4 15 0 20 -7 6 -10 9 -11 9 -1 0 6 6 12 14 12 27 0 47 31
44 68 -2 32 0 36 27 43 28 8 52 1 28 -8 -7 -3 -13 -12 -13 -21 0 -12 3 -13 12
-4 14 14 68 16 68 2 0 -5 -13 -10 -30 -10 -26 0 -30 -4 -30 -27 0 -20 7 -31
26 -40 15 -7 31 -10 35 -7 5 3 11 -7 15 -21 3 -14 11 -25 17 -25 6 0 7 3 4 6
-3 4 0 16 8 28 8 11 16 34 16 51 1 17 3 22 6 13 6 -24 11 -23 35 7 15 20 25
23 51 19 l32 -6 -35 21 c-110 64 -147 72 -205 46z"/>
<path d="M2474 3012 c-8 -5 -14 -89 -19 -250 l-7 -244 21 11 c30 17 115 104
151 156 17 25 44 73 60 108 32 67 67 193 57 203 -19 20 -238 33 -263 16z"/>
<path d="M1867 2758 c-4 -95 -7 -214 -7 -265 l0 -91 50 -11 c74 -16 152 -14
178 5 22 15 30 49 13 56 -9 3 -16 85 -12 133 1 17 3 18 11 5 8 -13 10 -12 10
3 0 9 -7 17 -15 17 -13 0 -15 22 -13 158 l3 157 -106 3 -106 3 -6 -173z"/>
<path d="M1512 2613 c5 -6 24 -14 41 -16 30 -4 31 -4 9 -12 -36 -12 -7 -25 57
-25 l53 0 -4 -30 c-4 -29 -3 -30 34 -30 42 0 55 -26 16 -32 -21 -3 -21 -4 5
-15 l27 -13 0 90 c0 65 -4 90 -12 91 -7 1 -63 2 -125 3 -85 1 -109 -2 -101
-11z"/>
<path d="M1510 1430 c-15 -15 -20 -33 -20 -71 0 -43 5 -55 29 -80 39 -38 82
-39 111 -1 31 39 24 116 -14 149 -33 28 -79 30 -106 3z"/>
<path d="M2740 1430 c-15 -15 -20 -33 -20 -71 0 -43 5 -55 29 -80 39 -38 82
-39 111 -1 31 39 24 116 -14 149 -33 28 -79 30 -106 3z"/>
</g>
</svg>
