<svg width="800" height="600" xmlns="http://www.w3.org/2000/svg">

 <g>
  <title>Layer 1</title>
  <metadata>Created by potrace 1.16, written by Peter Selinger 2001-2019</metadata>
  <g id="svg_13">
   <g id="svg_4" fill="#000000" transform="matrix(0.0401606 0 0 -0.0401606 0 200)">
    <path fill="#ffffff" id="svg_5" d="m8777.52628,648.98387c-354,-181 -1176,-499 -1568,-607l-57,-16l0,-202c-1,-479 21,-1993 30,-2107c21,-263 91,-470 229,-677c190,-284 475,-511 921,-733c186,-93 607,-280 630,-280c27,0 469,198 669,300c310,158 503,291 681,470c219,220 350,462 411,756c23,111 31,424 45,1775l7,697l-59,16c-397,111 -1188,417 -1569,607c-99,49 -184,89 -190,88c-5,0 -87,-40 -180,-87zm349,-151c306,-150 897,-384 1304,-517l202,-66l-1,-182c0,-99 -6,-602 -14,-1116c-11,-754 -17,-951 -29,-1017c-50,-263 -164,-480 -360,-682c-229,-235 -513,-410 -1058,-651l-208,-91l-207,92c-548,242 -793,390 -1029,624c-185,182 -282,334 -348,545c-56,176 -56,176 -71,1180c-8,514 -14,1016 -14,1116l-1,181l227,76c430,142 1056,393 1308,523c66,34 124,62 129,63c5,0 81,-34 170,-78z"/>
    <path fill="#ffffff" id="svg_6" d="m8887.52628,409.98387c-252,-130 -933,-403 -1330,-533c-71,-23 -134,-46 -139,-51c-11,-10 12,-1967 25,-2109c29,-322 182,-601 454,-828c212,-177 429,-301 858,-492l207,-92l208,92c428,191 645,315 857,492c272,227 425,506 454,828c13,142 36,2099 25,2109c-5,5 -67,28 -139,51c-393,129 -1047,390 -1323,529c-45,22 -83,41 -84,41c-2,-1 -34,-17 -73,-37zm104,-74c-4,-110 -81,-229 -150,-229c-39,0 -76,-20 -118,-64l-35,-36l35,10c41,12 129,13 147,2c7,-5 -15,-6 -47,-4c-38,3 -76,-1 -105,-11c-62,-21 -60,-6 9,59c30,29 55,56 55,61c0,5 25,38 56,74c31,35 68,81 81,101c14,21 30,35 36,31c6,-3 7,-1 3,6c-7,11 18,61 30,61c3,0 4,-27 3,-61zm-85,-444c11,-8 32,-15 46,-15c14,0 35,7 46,15c25,19 67,19 161,-1c59,-12 82,-13 101,-4c36,16 38,5 3,-19c-28,-21 -31,-21 -98,-5c-73,17 -129,15 -180,-7c-28,-11 -38,-11 -65,0c-52,22 -108,24 -181,7c-67,-16 -70,-16 -98,5c-35,24 -33,35 3,19c18,-9 41,-8 94,3c89,20 144,20 168,2zm271,-109c247,-69 446,-261 531,-511c39,-115 45,-295 15,-415c-90,-357 -387,-590 -751,-590c-339,0 -618,203 -732,530c-31,90 -32,103 -33,235c0,157 16,229 80,355c104,203 298,355 521,404c88,20 284,15 369,-8zm-1348,-555c56,-40 73,-68 73,-116l-1,-40l-30,35l-30,35l16,-39c20,-50 20,-49 -15,-31c-39,20 -70,82 -70,140c0,25 4,45 8,45c5,0 27,-13 49,-29zm2323,-16c0,-58 -31,-120 -70,-140c-35,-18 -35,-19 -15,31l16,39l-30,-35l-30,-35l-1,40c0,22 7,51 16,63c17,25 91,82 106,82c4,0 8,-20 8,-45zm-2339,-221c44,-22 79,-71 79,-112l0,-36l-30,29c-34,32 -37,28 -15,-15c13,-26 14,-30 1,-30c-20,0 -74,47 -90,79c-14,25 -19,58 -17,94c1,20 21,17 72,-9zm2370,9c2,-36 -3,-69 -17,-94c-16,-32 -70,-79 -90,-79c-13,0 -12,4 1,30c22,43 19,47 -15,15l-30,-29l0,36c0,46 38,94 95,119c50,23 55,23 56,2zm-2121,-18c0,-40 -37,-104 -73,-125c-50,-31 -62,-26 -37,15c26,42 19,45 -15,9l-25,-27l0,35c0,43 22,71 75,98c56,27 75,26 75,-5zm1875,4c55,-26 75,-52 75,-98l0,-34l-25,27c-34,36 -41,33 -15,-9c25,-41 13,-46 -37,-15c-36,21 -73,85 -73,125c0,31 16,32 75,4zm-1861,-165c17,-45 -4,-135 -41,-176c-25,-28 -34,-21 -28,25l5,42l-18,-37c-21,-47 -29,-48 -37,-4c-9,44 16,97 64,136c41,34 47,36 55,14zm1827,-14c48,-39 73,-92 64,-136c-8,-44 -16,-43 -37,4l-18,37l5,-42c6,-46 -3,-53 -28,-25c-37,41 -58,131 -41,176c8,22 14,20 55,-14zm-1997,-103c23,-16 53,-73 43,-83c-3,-3 -16,1 -29,10c-37,26 -44,18 -13,-14l29,-30l-35,0c-61,0 -139,69 -139,124c0,17 6,18 60,13c34,-3 71,-12 84,-20zm2256,6c0,-54 -78,-123 -139,-123l-35,0l29,30c31,32 24,40 -13,14c-33,-23 -40,-9 -17,34c22,42 63,61 133,61c34,1 42,-2 42,-16zm-2000,-85c24,-53 25,-95 4,-148c-21,-52 -34,-51 -34,3c0,31 -3,38 -10,27c-5,-8 -10,-28 -10,-44c0,-28 -1,-29 -19,-12c-27,25 -35,69 -21,113c15,47 48,103 61,103c6,0 19,-19 29,-42zm1670,-14c33,-63 34,-125 3,-156l-23,-22l0,29c0,17 -5,37 -10,45c-7,11 -10,4 -10,-27c0,-24 -4,-43 -9,-43c-13,0 -41,76 -41,113c1,41 36,120 52,115c7,-3 24,-27 38,-54zm-1791,-156c17,-10 51,-58 51,-72c0,-3 -13,0 -30,5c-44,16 -60,5 -22,-15c18,-9 30,-21 27,-26c-11,-17 -84,-11 -126,10c-34,18 -79,70 -79,92c0,12 83,27 123,22c21,-2 46,-10 56,-16zm233,-5c35,-36 48,-73 48,-133c0,-81 -22,-110 -34,-45c-11,56 -30,56 -22,0c6,-37 5,-46 -6,-43c-25,8 -58,70 -58,108c0,42 27,140 39,140c4,0 19,-12 33,-27zm1433,-25c21,-72 19,-119 -7,-158c-36,-53 -51,-51 -42,5c8,56 -11,56 -22,0c-7,-37 -18,-45 -28,-19c-10,25 -7,110 5,141c11,29 57,83 70,83c5,0 15,-23 24,-52zm305,41c27,-6 50,-14 50,-17c0,-22 -45,-74 -79,-92c-42,-21 -115,-27 -126,-10c-3,5 9,17 27,26c38,20 22,31 -22,15c-34,-11 -37,-6 -13,29c37,54 80,67 163,49zm-1536,-182c41,-42 66,-100 66,-151c0,-35 -11,-33 -38,10c-30,46 -39,37 -18,-17c9,-23 15,-44 12,-46c-3,-3 -19,3 -37,13c-49,29 -69,76 -69,161c0,68 1,73 22,73c12,0 39,-18 62,-43zm1056,-30c0,-85 -20,-132 -69,-161c-18,-10 -34,-16 -37,-13c-3,2 3,23 12,46c21,54 12,63 -18,17c-27,-43 -38,-45 -38,-10c0,77 78,194 128,194c21,0 22,-5 22,-73zm-1348,3c22,-6 46,-23 58,-40l21,-29l-48,-3l-48,-3l43,-14c36,-12 41,-17 29,-28c-21,-21 -82,-27 -131,-13c-48,13 -116,74 -100,89c8,8 119,50 134,51c3,0 22,-5 42,-10zm1688,-20c24,-9 46,-22 47,-27c7,-19 -58,-71 -103,-83c-49,-14 -110,-8 -131,13c-12,11 -7,16 29,28l43,14l-48,3l-48,3l21,29c36,51 95,57 190,20zm-1175,-40c18,-11 44,-37 59,-59c29,-42 46,-111 27,-111c-6,0 -11,4 -11,9c0,5 -15,20 -32,33l-33,23l28,-48l28,-47l-23,0c-25,0 -65,24 -85,50c-14,18 -43,118 -43,148c0,29 40,30 85,2zm615,-2c0,-30 -29,-130 -43,-148c-20,-26 -60,-50 -85,-50l-23,0l28,47l28,48l-33,-23c-17,-13 -32,-28 -32,-33c0,-5 -5,-9 -11,-9c-19,0 -2,69 27,111c49,71 144,108 144,57zm-860,-127l34,-28l-59,-8c-45,-6 -55,-10 -40,-16c11,-4 35,-8 53,-8c42,-1 38,-20 -9,-43c-63,-33 -160,-18 -204,31l-19,23l24,19c85,65 165,76 220,30zm1174,9c23,-11 52,-29 66,-39l24,-19l-19,-23c-44,-49 -141,-64 -204,-31c-47,23 -51,42 -9,43c18,0 42,4 53,8c15,7 6,10 -37,16c-62,8 -64,15 -14,46c40,24 89,24 140,-1zm-604,-57c65,-58 25,-163 -60,-163c-85,0 -125,105 -60,163c18,16 42,27 60,27c18,0 42,-11 60,-27zm-297,-50l32,-16l-47,-16c-67,-23 -71,-34 -10,-30c28,2 52,1 52,-3c0,-13 -61,-57 -96,-68c-45,-15 -112,-8 -148,15l-27,18l28,30c79,84 147,106 216,70zm623,-12c21,-16 52,-42 67,-58l28,-30l-27,-18c-36,-23 -103,-30 -148,-15c-35,11 -96,55 -96,68c0,4 24,5 52,3c61,-4 57,7 -10,30l-47,16l30,16c48,26 106,22 151,-12zm-912,-391c44,-106 61,-128 90,-117c13,5 16,23 16,111c0,91 -2,105 -17,109c-10,3 7,5 37,6c42,0 51,-2 38,-10c-15,-8 -18,-25 -18,-94c0,-46 3,-90 6,-99c9,-23 70,-21 83,2c9,14 10,13 11,-10l0,-28l-123,0l-123,0l-9,33c-9,29 -14,32 -51,35c-38,3 -43,1 -52,-27c-8,-22 -7,-31 1,-35c7,-2 -8,-4 -33,-4c-25,0 -37,2 -28,5c11,3 35,47 65,119c26,63 51,113 56,111c5,-1 28,-50 51,-107zm333,103c-17,-4 -19,-14 -15,-95c3,-96 15,-118 63,-118c47,0 60,23 64,111c3,71 1,84 -15,96c-16,11 -12,13 32,12c27,-1 41,-3 32,-6c-15,-4 -18,-17 -18,-83c0,-44 -5,-90 -11,-103c-24,-52 -122,-65 -164,-22c-23,22 -25,32 -25,109c0,70 -3,87 -17,95c-14,8 -5,10 37,10c30,-1 47,-3 37,-6zm282,-80l43,-88l44,88c25,48 48,86 53,83c4,-3 13,-50 20,-104c14,-105 17,-116 41,-125c8,-3 -4,-6 -27,-6l-41,-1l-9,73l-9,72l-37,-72c-20,-40 -41,-73 -45,-73c-5,0 -24,32 -43,71c-32,68 -34,70 -40,43c-11,-51 -10,-102 4,-107c6,-3 -8,-6 -33,-6c-33,0 -41,2 -29,9c10,6 19,29 23,57c16,110 28,173 35,173c4,0 26,-39 50,-87zm408,-52l33,-36l0,77c0,63 -3,79 -17,87c-14,8 -8,10 27,11c25,0 40,-4 34,-8c-6,-4 -14,-55 -17,-116c-4,-60 -9,-112 -12,-115c-3,-3 -44,33 -90,79l-85,85l0,-67c0,-47 5,-71 16,-82c14,-15 12,-16 -28,-15c-24,0 -37,3 -30,6c6,2 12,22 12,42c0,21 3,72 6,115l7,76l56,-51c31,-29 71,-68 88,-88zm-1513,-270c24,-57 51,-110 61,-117c17,-13 15,-14 -21,-14c-36,0 -41,3 -49,33c-9,29 -14,32 -51,35c-38,3 -43,1 -52,-27c-8,-22 -7,-31 1,-35c7,-2 -8,-4 -33,-4c-25,0 -37,2 -28,5c11,3 35,47 65,119c26,63 51,113 56,111c5,-1 28,-49 51,-106zm215,77c0,-30 -1,-31 -9,-10c-7,16 -18,22 -39,22c-42,0 -50,-29 -14,-58c15,-13 38,-31 51,-42c28,-24 29,-73 1,-101c-16,-16 -30,-19 -67,-17c-46,3 -47,4 -50,38l-2,35l16,-28c12,-23 21,-28 47,-25c26,2 33,8 35,30c3,22 -4,32 -37,52c-65,41 -75,73 -36,111c18,18 35,25 65,25c39,0 40,-1 39,-32zm190,0c0,-30 -1,-31 -9,-10c-7,16 -18,22 -39,22c-42,0 -50,-29 -14,-58c15,-13 38,-31 51,-42c28,-24 29,-73 1,-101c-16,-16 -30,-19 -67,-17c-46,3 -47,4 -50,38l-2,35l16,-28c12,-23 21,-28 47,-25c26,2 33,8 35,30c3,22 -4,32 -37,52c-65,41 -75,73 -36,111c18,18 35,25 65,25c39,0 40,-1 39,-32zm241,17c40,-21 60,-53 60,-98c0,-100 -108,-160 -200,-112c-77,40 -79,168 -2,209c35,20 105,20 142,1zm304,9c10,-4 16,-18 16,-38c-1,-28 -2,-29 -12,-11c-16,29 -28,35 -71,35c-73,0 -110,-76 -73,-149c27,-50 100,-67 137,-30l20,20l-3,-28c-3,-26 -6,-28 -57,-31c-65,-4 -103,10 -136,50c-43,51 -26,140 33,172c27,15 117,21 146,10zm124,-5c-15,-8 -18,-25 -18,-99c0,-105 5,-120 35,-120c20,0 30,15 72,115c26,63 51,114 56,112c5,-1 28,-49 51,-106c24,-57 51,-110 61,-117c17,-13 15,-14 -21,-14c-36,0 -41,3 -49,33c-9,29 -14,32 -51,35c-38,3 -43,1 -52,-27c-8,-22 -7,-31 1,-35c7,-2 -31,-5 -83,-5c-69,0 -90,2 -77,10c14,8 17,25 17,114c0,90 -2,104 -17,108c-10,3 7,5 37,6c42,0 51,-2 38,-10zm802,-4c40,-21 60,-53 60,-98c0,-100 -108,-160 -200,-112c-77,40 -79,168 -2,209c35,20 105,20 142,1zm257,-124l33,-36l0,77c0,63 -3,79 -17,87c-14,8 -8,10 27,11c25,0 40,-4 34,-8c-6,-4 -14,-55 -17,-116c-4,-60 -9,-112 -12,-115c-3,-3 -44,33 -90,79l-85,85l0,-67c0,-47 5,-71 16,-82c14,-15 11,-16 -28,-15c-24,0 -37,3 -30,6c6,2 12,22 12,42c0,21 3,72 6,115l7,76l56,-51c31,-29 71,-68 88,-88z"/>
    <path fill="#ffffff" id="svg_7" d="m8887.52628,-668.01613c-16,-8 -47,-14 -67,-15c-28,0 -41,-6 -52,-23c-22,-32 -48,-109 -35,-101c6,4 15,0 20,-7c6,-10 9,-11 9,-1c0,6 6,12 14,12c27,0 47,31 44,68c-2,32 0,36 27,43c28,8 52,1 28,-8c-7,-3 -13,-12 -13,-21c0,-12 3,-13 12,-4c14,14 68,16 68,2c0,-5 -13,-10 -30,-10c-26,0 -30,-4 -30,-27c0,-20 7,-31 26,-40c15,-7 31,-10 35,-7c5,3 11,-7 15,-21c3,-14 11,-25 17,-25c6,0 7,3 4,6c-3,4 0,16 8,28c8,11 16,34 16,51c1,17 3,22 6,13c6,-24 11,-23 35,7c15,20 25,23 51,19l32,-6l-35,21c-110,64 -147,72 -205,46z"/>
    <path fill="#ffffff" id="svg_8" d="m9426.52628,-1081.01613c-8,-5 -14,-89 -19,-250l-7,-244l21,11c30,17 115,104 151,156c17,25 44,73 60,108c32,67 67,193 57,203c-19,20 -238,33 -263,16z"/>
    <path fill="#ffffff" id="svg_9" d="m8819.52628,-1335.01613c-4,-95 -7,-214 -7,-265l0,-91l50,-11c74,-16 152,-14 178,5c22,15 30,49 13,56c-9,3 -16,85 -12,133c1,17 3,18 11,5c8,-13 10,-12 10,3c0,9 -7,17 -15,17c-13,0 -15,22 -13,158l3,157l-106,3l-106,3l-6,-173z"/>
    <path fill="#ffffff" id="svg_10" d="m8464.52628,-1480.01613c5,-6 24,-14 41,-16c30,-4 31,-4 9,-12c-36,-12 -7,-25 57,-25l53,0l-4,-30c-4,-29 -3,-30 34,-30c42,0 55,-26 16,-32c-21,-3 -21,-4 5,-15l27,-13l0,90c0,65 -4,90 -12,91c-7,1 -63,2 -125,3c-85,1 -109,-2 -101,-11z"/>
    <path fill="#ffffff" id="svg_11" d="m8462.52628,-2663.01613c-15,-15 -20,-33 -20,-71c0,-43 5,-55 29,-80c39,-38 82,-39 111,-1c31,39 24,116 -14,149c-33,28 -79,30 -106,3z"/>
    <path fill="#ffffff" id="svg_12" d="m9692.52628,-2663.01613c-15,-15 -20,-33 -20,-71c0,-43 5,-55 29,-80c39,-38 82,-39 111,-1c31,39 24,116 -14,149c-33,28 -79,30 -106,3z"/>
   </g>
  </g>
 </g>
</svg>